<mxfile host="app.diagrams.net" modified="2023-04-06T11:01:17.683Z" agent="Mozilla/5.0 (Macintosh; Intel Mac OS X 10_15_7) AppleWebKit/605.1.15 (KHTML, like Gecko) Version/15.6 Safari/605.1.15" etag="2E7i1EF9_3R0Trp_rjKG" version="21.1.4" type="github">
  <diagram name="Page-1" id="Hrf_kSM9Iy_FT-bjA1-r">
    <mxGraphModel dx="1242" dy="804" grid="1" gridSize="10" guides="1" tooltips="1" connect="1" arrows="1" fold="1" page="1" pageScale="1" pageWidth="827" pageHeight="1169" math="0" shadow="0">
      <root>
        <mxCell id="0" />
        <mxCell id="1" parent="0" />
        <mxCell id="3lCNJk7vwCchwNjuJQ_N-2" style="edgeStyle=orthogonalEdgeStyle;rounded=0;orthogonalLoop=1;jettySize=auto;html=1;" edge="1" parent="1" source="3lCNJk7vwCchwNjuJQ_N-1">
          <mxGeometry relative="1" as="geometry">
            <mxPoint x="240" y="500" as="targetPoint" />
          </mxGeometry>
        </mxCell>
        <mxCell id="3lCNJk7vwCchwNjuJQ_N-6" style="edgeStyle=orthogonalEdgeStyle;rounded=0;orthogonalLoop=1;jettySize=auto;html=1;" edge="1" parent="1" source="3lCNJk7vwCchwNjuJQ_N-1" target="3lCNJk7vwCchwNjuJQ_N-4">
          <mxGeometry relative="1" as="geometry" />
        </mxCell>
        <mxCell id="3lCNJk7vwCchwNjuJQ_N-7" style="edgeStyle=orthogonalEdgeStyle;rounded=0;orthogonalLoop=1;jettySize=auto;html=1;" edge="1" parent="1" source="3lCNJk7vwCchwNjuJQ_N-1" target="3lCNJk7vwCchwNjuJQ_N-5">
          <mxGeometry relative="1" as="geometry" />
        </mxCell>
        <mxCell id="3lCNJk7vwCchwNjuJQ_N-8" style="edgeStyle=orthogonalEdgeStyle;rounded=0;orthogonalLoop=1;jettySize=auto;html=1;exitX=0.25;exitY=1;exitDx=0;exitDy=0;" edge="1" parent="1" source="3lCNJk7vwCchwNjuJQ_N-1">
          <mxGeometry relative="1" as="geometry">
            <mxPoint x="310" y="550" as="targetPoint" />
            <Array as="points">
              <mxPoint x="350" y="490" />
              <mxPoint x="310" y="490" />
            </Array>
          </mxGeometry>
        </mxCell>
        <mxCell id="3lCNJk7vwCchwNjuJQ_N-11" style="edgeStyle=orthogonalEdgeStyle;rounded=0;orthogonalLoop=1;jettySize=auto;html=1;exitX=0.75;exitY=1;exitDx=0;exitDy=0;entryX=0.5;entryY=0;entryDx=0;entryDy=0;" edge="1" parent="1" source="3lCNJk7vwCchwNjuJQ_N-1" target="3lCNJk7vwCchwNjuJQ_N-10">
          <mxGeometry relative="1" as="geometry">
            <Array as="points">
              <mxPoint x="410" y="490" />
              <mxPoint x="450" y="490" />
            </Array>
          </mxGeometry>
        </mxCell>
        <mxCell id="3lCNJk7vwCchwNjuJQ_N-1" value="AUIView" style="rounded=1;whiteSpace=wrap;html=1;" vertex="1" parent="1">
          <mxGeometry x="320" y="420" width="120" height="40" as="geometry" />
        </mxCell>
        <mxCell id="3lCNJk7vwCchwNjuJQ_N-3" value="AUILabel" style="rounded=1;whiteSpace=wrap;html=1;" vertex="1" parent="1">
          <mxGeometry x="180" y="500" width="120" height="40" as="geometry" />
        </mxCell>
        <mxCell id="3lCNJk7vwCchwNjuJQ_N-4" value="AUISwitch" style="rounded=1;whiteSpace=wrap;html=1;" vertex="1" parent="1">
          <mxGeometry x="320" y="500" width="120" height="40" as="geometry" />
        </mxCell>
        <mxCell id="3lCNJk7vwCchwNjuJQ_N-5" value="AUITextField" style="rounded=1;whiteSpace=wrap;html=1;" vertex="1" parent="1">
          <mxGeometry x="460" y="500" width="120" height="40" as="geometry" />
        </mxCell>
        <mxCell id="3lCNJk7vwCchwNjuJQ_N-9" value="AUIProgressView" style="rounded=1;whiteSpace=wrap;html=1;" vertex="1" parent="1">
          <mxGeometry x="250" y="550" width="120" height="40" as="geometry" />
        </mxCell>
        <mxCell id="3lCNJk7vwCchwNjuJQ_N-10" value="AUISegmentedControl" style="rounded=1;whiteSpace=wrap;html=1;" vertex="1" parent="1">
          <mxGeometry x="390" y="550" width="120" height="40" as="geometry" />
        </mxCell>
      </root>
    </mxGraphModel>
  </diagram>
</mxfile>
